<svg width="74" height="41" viewBox="0 0 74 41" fill="none" xmlns="http://www.w3.org/2000/svg">
<g clip-path="url(#clip0_280_1103)">
<path d="M74.0002 12.3895C69.5844 12.5931 64.8547 12.017 60.4909 12.632C41.3856 15.3261 41.4701 42.4313 18.8889 40.7572C4.7949 39.7112 -4.11671 24.79 1.91677 11.8784C7.02985 0.933248 20.5023 -3.36988 30.971 2.90182C31.7463 3.36743 35.0294 5.79078 35.2135 6.47729C35.3759 7.08367 28.5087 13.8318 27.7659 14.9839C22.7611 8.33541 12.039 11.2958 11.4066 19.6357C10.8717 26.6806 17.4423 31.3952 23.9717 28.9523C28.9786 27.079 34.0614 18.2216 37.6239 14.0181C43.1159 7.53846 50.6221 2.55315 59.2023 1.37937C63.9992 0.723181 69.1448 1.34472 74.0002 1.12599V12.3873V12.3895Z" fill="#3163B7"/>
<path d="M70.3184 15.6382V27.1161H62.6304C60.194 27.1161 56.8914 31.1269 56.8914 33.5047V39.8934H45.6301C45.0042 31.0402 46.8125 22.5704 55.0138 17.9836C56.6878 17.048 60.5579 15.6382 62.4138 15.6382H70.3184Z" fill="#4285F4"/>
</g>
<defs>
<clipPath id="clip0_280_1103">
<rect width="74" height="40.831" fill="white"/>
</clipPath>
</defs>
</svg>
