<svg width="30" height="21" viewBox="0 0 30 21" fill="none" xmlns="http://www.w3.org/2000/svg">
<path d="M1.39406 0.831055C1.57588 0.850146 1.75815 0.8656 1.93951 0.8656C10.6463 0.871055 19.3532 0.871055 28.06 0.8656C28.2413 0.8656 28.4232 0.850146 28.6054 0.831055C28.8891 0.939691 29.0909 1.21424 29.0909 1.53651V1.61515C28.7 1.88015 28.2709 2.10106 27.925 2.41515C24.3813 5.63924 20.8491 8.8756 17.3172 12.1129C15.6122 13.6761 14.3954 13.6774 12.6845 12.1106C9.17633 8.89924 5.67042 5.6856 2.15133 2.48651C1.77997 2.14833 1.3636 1.90333 0.909058 1.61469V1.53605C0.909058 1.21424 1.11042 0.939691 1.39406 0.831055Z" fill="white"/>
<path d="M9.23315 12.1989C9.72952 11.7626 10.095 11.7667 10.5482 12.2517C10.9977 12.7326 11.5159 13.1494 12.0113 13.5867C13.945 15.2889 16.0768 15.2812 18.0122 13.5644C18.6591 12.9907 19.2995 12.4107 20.0236 11.7607C22.0136 13.4067 23.9563 15.0248 25.9132 16.6262C26.96 17.483 28.1818 18.3103 29.0909 19.1507V20.273C29.0909 20.6912 28.7522 20.8312 28.3341 20.8312H1.66588C1.24769 20.8312 0.909058 20.6912 0.909058 20.273V18.9421C2.64406 17.5644 4.38497 16.1948 6.11088 14.8057C7.16679 13.9553 8.21588 13.0939 9.23315 12.1989Z" fill="white"/>
<path d="M29.0909 3.55815V17.2713C26.4882 15.1013 23.8859 12.9313 21.1718 10.6677C23.8995 8.19679 26.495 5.8777 29.0909 3.52588" fill="white"/>
<path d="M0.909058 16.7401V3.49414C3.49906 5.84096 6.08861 8.18823 8.76497 10.6137C6.05679 12.8369 3.48315 14.7887 0.909058 16.9014" fill="white"/>
</svg>
