<svg width="43" height="31" viewBox="0 0 43 31" fill="none" xmlns="http://www.w3.org/2000/svg">
<path d="M0.7275 0.976562C1.00023 1.0052 1.27364 1.02838 1.54568 1.02838C14.6059 1.03656 27.6661 1.03656 40.7264 1.02838C40.9984 1.02838 41.2711 1.0052 41.5446 0.976562C41.97 1.13952 42.2727 1.55134 42.2727 2.03474V2.1527C41.6864 2.5502 41.0427 2.88156 40.5239 3.3527C35.2084 8.18884 29.91 13.0434 24.6123 17.8993C22.0548 20.2441 20.2296 20.2461 17.6632 17.8959C12.4009 13.0788 7.14205 8.25838 1.86341 3.45975C1.30636 2.95247 0.681818 2.58497 0 2.15202V2.03406C0 1.55134 0.302045 1.13952 0.7275 0.976562Z" fill="#18315B"/>
<path d="M12.4861 18.0279C13.2307 17.3733 13.7789 17.3795 14.4586 18.107C15.133 18.8283 15.9102 19.4536 16.6534 20.1095C19.5539 22.6629 22.7516 22.6513 25.6548 20.0761C26.625 19.2156 27.5857 18.3456 28.6718 17.3706C31.6568 19.8395 34.5709 22.2667 37.5061 24.6688C39.0764 25.954 40.9091 27.1949 42.2727 28.4556V30.139C42.2727 30.7663 41.7648 30.9763 41.1375 30.9763H1.13523C0.507955 30.9763 0 30.7663 0 30.139V28.1427C2.6025 26.0761 5.21387 24.0217 7.80273 21.9381C9.38659 20.6624 10.9602 19.3704 12.4861 18.0279Z" fill="#18315B"/>
<path d="M42.2732 5.06745V25.6372C38.3691 22.3822 34.4657 19.1272 30.3945 15.7318C34.4861 12.0254 38.3793 8.54677 42.2732 5.01904" fill="#18315B"/>
<path d="M0 24.8401V4.97119C3.885 8.49142 7.76932 12.0123 11.7839 15.6505C7.72159 18.9853 3.86114 21.913 0 25.0821" fill="#18315B"/>
</svg>
