<svg width="43" height="31" viewBox="0 0 43 31" fill="none" xmlns="http://www.w3.org/2000/svg">
<path d="M32.8623 13.3682C31.965 13.3688 31.0703 13.4675 30.1944 13.6629C29.487 16.2726 27.892 18.5535 25.6837 20.1136C25.0248 20.605 24.3286 21.044 23.6011 21.4268C24.2738 24.8133 28.1578 27.4166 32.8572 27.4166H33.4377L35.9995 30.8308V27.0155C39.6303 26.0433 42.2337 23.4538 42.2337 20.3993C42.2337 16.5149 38.0362 13.3682 32.8623 13.3682Z" fill="#00B42A"/>
<path d="M28.7337 11.3181C28.7337 5.52652 22.472 0.831055 14.7499 0.831055C7.0278 0.831376 0.766113 5.52627 0.766113 11.3181C0.766113 15.8565 4.6087 19.7177 9.98114 21.1782L8.36834 25.6015L14.2107 21.8142H14.7496C22.4721 21.8142 28.7334 17.11 28.7334 11.3182L28.7337 11.3181ZM15.8327 16.4508L13.7683 16.4511V14.442H15.8327V16.4508ZM17.8137 10.6454C17.5235 11.0073 17.1857 11.328 16.8094 11.5993L16.3209 11.9773V11.9769C16.0737 12.1576 15.8886 12.4102 15.7912 12.7004C15.7189 12.9678 15.6832 13.2436 15.6851 13.5206H13.8191C13.8117 12.9765 13.8863 12.4343 14.0402 11.9127C14.2588 11.5013 14.5753 11.15 14.9616 10.8896L15.464 10.4979V10.4982C15.6186 10.3857 15.7542 10.2488 15.8648 10.0926C16.0451 9.85217 16.1421 9.55938 16.1412 9.25854C16.1437 8.91658 16.037 8.58232 15.8371 8.30495C15.5585 7.98452 15.1394 7.82221 14.7174 7.87171C14.4985 7.8505 14.2777 7.88874 14.0785 7.98195C13.8792 8.07515 13.7082 8.2201 13.5842 8.40169C13.3705 8.72951 13.2554 9.11165 13.2525 9.5028H11.2528C11.308 8.19443 11.7689 7.27268 12.6351 6.73813C13.2361 6.37239 13.9313 6.18983 14.6345 6.21297C15.5553 6.17858 16.463 6.4402 17.224 6.95957C17.9205 7.4722 18.3091 8.30332 18.256 9.16624C18.2686 9.69365 18.1136 10.2115 17.8137 10.6454Z" fill="#00B42A"/>
</svg>
