<svg width="51" height="67" viewBox="0 0 51 67" fill="none" xmlns="http://www.w3.org/2000/svg">
<path d="M13.375 63.7791H37.5833M37.2375 48.0861C38.2491 43.8464 41.0953 40.2684 43.7565 36.7348C46.4953 33.1053 47.9653 28.7478 47.9583 24.2791C47.9583 12.4621 37.8946 2.8833 25.4792 2.8833C13.0638 2.8833 3 12.4621 3 24.2791C3 28.9253 4.55625 33.2275 7.20188 36.7348C9.86306 40.2684 12.7093 43.8448 13.7208 48.0861L14.7981 52.622C14.8849 52.9866 15.0995 53.3121 15.4065 53.5452C15.7136 53.7782 16.0948 53.9048 16.4875 53.9041H34.4708C34.8632 53.9044 35.2441 53.7776 35.5508 53.5446C35.8575 53.3116 36.0718 52.9863 36.1585 52.622L37.2375 48.0861Z" stroke="#3163B7" stroke-width="5"/>
</svg>
