<svg width="25" height="31" viewBox="0 0 25 31" fill="none" xmlns="http://www.w3.org/2000/svg">
<path d="M12.1875 21.6016C5.4375 21.6016 0 23.6641 0 26.2891C0 28.9141 5.4375 30.9766 12.1875 30.9766C18.9375 30.9766 24.375 28.9141 24.375 26.2891C24.375 23.6641 18.9375 21.6016 12.1875 21.6016ZM12.1875 28.1641C7.5 28.1641 3.75 27.3203 3.75 26.2891C3.75 25.2578 7.5 24.4141 12.1875 24.4141C16.875 24.4141 20.625 25.2578 20.625 26.2891C20.625 27.3203 16.875 28.1641 12.1875 28.1641Z" fill="#18315B"/>
<path d="M12.1875 0.976562C7.5 0.976562 3.75 4.72656 3.75 9.41406C3.75 14.1016 12.1875 27.2266 12.1875 27.2266C12.1875 27.2266 20.625 14.1016 20.625 9.41406C20.625 4.72656 16.875 0.976562 12.1875 0.976562ZM12.1875 13.1641C10.125 13.1641 8.4375 11.4766 8.4375 9.41406C8.4375 7.35156 10.125 5.66406 12.1875 5.66406C14.25 5.66406 15.9375 7.35156 15.9375 9.41406C15.9375 11.4766 14.25 13.1641 12.1875 13.1641Z" fill="#18315B"/>
</svg>
