<svg width="30" height="27" viewBox="0 0 30 27" fill="none" xmlns="http://www.w3.org/2000/svg">
<path d="M15 17.5811C10.5 17.5811 6.875 18.9561 6.875 20.7061C6.875 22.4561 10.5 23.8311 15 23.8311C19.5 23.8311 23.125 22.4561 23.125 20.7061C23.125 18.9561 19.5 17.5811 15 17.5811ZM15 21.9561C11.875 21.9561 9.375 21.3936 9.375 20.7061C9.375 20.0186 11.875 19.4561 15 19.4561C18.125 19.4561 20.625 20.0186 20.625 20.7061C20.625 21.3936 18.125 21.9561 15 21.9561Z" fill="white"/>
<path d="M15 3.83105C11.875 3.83105 9.375 6.33105 9.375 9.45605C9.375 12.5811 15 21.3311 15 21.3311C15 21.3311 20.625 12.5811 20.625 9.45605C20.625 6.33105 18.125 3.83105 15 3.83105ZM15 11.9561C13.625 11.9561 12.5 10.8311 12.5 9.45605C12.5 8.08105 13.625 6.95605 15 6.95605C16.375 6.95605 17.5 8.08105 17.5 9.45605C17.5 10.8311 16.375 11.9561 15 11.9561Z" fill="white"/>
</svg>
