<svg width="84" height="80" viewBox="0 0 84 80" fill="none" xmlns="http://www.w3.org/2000/svg">
<path d="M15.5 68.7686H68C68.9283 68.7686 69.8185 68.4261 70.4749 67.8167C71.1313 67.2072 71.5 66.3805 71.5 65.5186V33.0186C71.5 32.1566 71.1313 31.33 70.4749 30.7205C69.8185 30.111 68.9283 29.7686 68 29.7686H15.5C14.5717 29.7686 13.6815 30.111 13.0251 30.7205C12.3687 31.33 12 32.1566 12 33.0186V65.5186C12 66.3805 12.3687 67.2072 13.0251 67.8167C13.6815 68.4261 14.5717 68.7686 15.5 68.7686ZM27.75 24.8936C27.75 21.4457 29.225 18.1391 31.8505 15.7012C34.476 13.2632 38.037 11.8936 41.75 11.8936C45.463 11.8936 49.024 13.2632 51.6495 15.7012C54.275 18.1391 55.75 21.4457 55.75 24.8936V29.7686H27.75V24.8936Z" stroke="#3163B7" stroke-width="5"/>
<path d="M49 49.3688C49 51.1121 48.2625 52.7839 46.9497 54.0166C45.637 55.2492 43.8565 55.9417 42 55.9417C40.1435 55.9417 38.363 55.2492 37.0503 54.0166C35.7375 52.7839 35 51.1121 35 49.3688C35 47.6256 35.7375 45.9537 37.0503 44.7211C38.363 43.4884 40.1435 42.7959 42 42.7959C43.8565 42.7959 45.637 43.4884 46.9497 44.7211C48.2625 45.9537 49 47.6256 49 49.3688Z" stroke="#3163B7" stroke-width="5"/>
</svg>
