<svg width="30" height="21" viewBox="0 0 30 21" fill="none" xmlns="http://www.w3.org/2000/svg">
<path d="M19.5962 20.8311C18.3088 20.8311 16.6467 19.9715 15.4791 19.2503C13.9155 18.2845 12.231 16.9483 10.7357 15.4883L10.7303 15.4829L10.2556 15.007C8.79874 13.5085 7.46576 11.82 6.50206 10.2528C5.78255 9.08258 4.9248 7.41677 4.9248 6.1264C4.9248 4.74551 5.91007 3.27998 6.33352 2.71408C6.66404 2.27227 7.81873 0.831055 8.79987 0.831055C9.20264 0.831055 9.63651 1.09534 10.2067 1.68809C10.7111 2.21209 11.1951 2.86361 11.5122 3.31778C11.9381 3.92752 12.332 4.56597 12.6215 5.11558C13.0901 6.00548 13.1443 6.38728 13.1443 6.59684C13.1443 7.01981 12.9238 7.38681 12.4891 7.68744C12.2029 7.88525 11.8592 8.03421 11.5269 8.17832C11.3028 8.27556 10.9449 8.43062 10.8084 8.5397C10.8561 8.7418 11.0642 9.23015 11.6267 10.0579C12.1509 10.8293 12.8288 11.6651 13.4412 12.2954C14.0701 12.9091 14.9038 13.5887 15.6738 14.114C16.4993 14.6776 16.9865 14.8864 17.1884 14.9342C17.2971 14.7974 17.4519 14.4387 17.5488 14.2142C17.6925 13.8811 17.8413 13.5366 18.0387 13.2497C18.3388 12.8139 18.7048 12.5931 19.127 12.5931C19.3361 12.5931 19.7169 12.6474 20.6048 13.117C21.1532 13.4071 21.7903 13.8019 22.3986 14.2288C22.8518 14.5467 23.5018 15.0317 24.0247 15.537C24.6159 16.1088 24.8797 16.5435 24.8797 16.9473C24.8797 17.9306 23.4419 19.088 23.0011 19.4191C22.4361 19.8438 20.9738 20.8311 19.5962 20.8311ZM11.5607 14.6452C12.9952 16.0456 14.6059 17.3238 16.0973 18.2448C17.5432 19.138 18.8184 19.6502 19.5962 19.6502C20.2891 19.6502 21.2765 19.2262 22.2383 18.516C22.6597 18.2045 23.0435 17.8577 23.3186 17.5395C23.5767 17.2409 23.6712 17.0459 23.6952 16.9672C23.5953 16.7524 23.0027 16.0807 21.6198 15.1245C21.0771 14.7493 20.5162 14.4047 20.0402 14.1538C19.4425 13.8389 19.1935 13.7845 19.1366 13.7755C19.1144 13.7908 19.0494 13.8454 18.9503 14.0116C18.8395 14.1977 18.7331 14.4445 18.6301 14.683C18.5035 14.9768 18.3723 15.2804 18.2116 15.5255C17.9501 15.924 17.6291 16.1263 17.2575 16.1264C17.2507 16.1264 17.2437 16.1264 17.2365 16.1261C17.0557 16.1222 16.505 16.1105 15.0102 15.0902C14.185 14.5267 13.2887 13.7962 12.6132 13.1357L12.6026 13.1253C11.9438 12.4479 11.2149 11.5498 10.6527 10.7228C9.63455 9.22448 9.62272 8.67264 9.61894 8.49116C9.61092 8.11192 9.81061 7.78474 10.2123 7.51795C10.458 7.35501 10.7635 7.2226 11.059 7.09443C11.297 6.99125 11.543 6.88459 11.7287 6.77369C11.8945 6.67458 11.9492 6.60938 11.9642 6.58698C11.9553 6.52991 11.901 6.28031 11.5869 5.68122C11.3367 5.20431 10.9926 4.64205 10.6185 4.0983C9.66428 2.71194 8.99411 2.11806 8.77993 2.01799C8.70141 2.04219 8.50694 2.13677 8.20885 2.39555C7.89123 2.67103 7.54532 3.05578 7.23473 3.4783C6.52603 4.442 6.10314 5.43185 6.10314 6.12624C6.10314 6.90568 6.614 8.18378 7.50508 9.63301C8.42415 11.1279 9.69943 12.7424 11.0966 14.18L11.5607 14.6452ZM18.5727 10.4076C18.3671 10.4076 18.185 10.2601 18.148 10.0499C18.0423 9.4494 17.6954 8.92747 17.1709 8.58061C16.6391 8.22872 15.9889 8.09805 15.3402 8.21275C15.1053 8.25433 14.8814 8.09703 14.8401 7.86158C14.7987 7.62629 14.9554 7.40184 15.1903 7.36038C16.0573 7.20702 16.9297 7.38386 17.6466 7.85824C18.371 8.33744 18.8512 9.06241 18.9985 9.89965C19.0399 10.1351 18.8831 10.3595 18.6483 10.401C18.6229 10.4055 18.5976 10.4076 18.5727 10.4076ZM21.1723 9.29003C20.9667 9.29003 20.7844 9.14243 20.7475 8.93243C20.5425 7.76684 19.8705 6.75506 18.8554 6.08361C17.8329 5.40708 16.5845 5.15561 15.3402 5.37557C15.1053 5.41706 14.8816 5.25978 14.8401 5.02449C14.7987 4.78916 14.9555 4.56454 15.1903 4.52308C16.6529 4.26472 18.1235 4.56217 19.3311 5.36126C20.5463 6.16503 21.3514 7.38001 21.5979 8.78213C21.6395 9.01758 21.4825 9.24209 21.2477 9.28355C21.2224 9.28791 21.1972 9.29003 21.1723 9.29003ZM24.6429 8.96743C24.4373 8.96743 24.2549 8.81966 24.218 8.60967C23.8682 6.62074 22.7225 4.8946 20.992 3.75003C19.2541 2.60032 17.1336 2.17277 15.0213 2.54611C14.7865 2.58755 14.5626 2.43042 14.5213 2.19497C14.4799 1.95968 14.6367 1.73515 14.8716 1.69371C17.2021 1.28172 19.5447 1.75543 21.4677 3.0275C23.3983 4.30466 24.6771 6.23376 25.0686 8.45943C25.1101 8.69472 24.9532 8.9192 24.7183 8.96063C24.693 8.96527 24.6678 8.96743 24.6429 8.96743Z" fill="white"/>
</svg>
