<svg width="31" height="31" viewBox="0 0 31 31" fill="none" xmlns="http://www.w3.org/2000/svg">
<path d="M22.0071 30.9766C20.0761 30.9766 17.5829 29.6872 15.8314 28.6054C13.486 27.1568 10.9592 25.1525 8.71637 22.9624L8.70818 22.9544L7.99616 22.2405C5.8109 19.9927 3.81143 17.46 2.36589 15.1091C1.28662 13.3538 0 10.8551 0 8.91959C0 6.84824 1.4779 4.64995 2.11307 3.8011C2.60885 3.13838 4.34088 0.976562 5.8126 0.976562C6.41676 0.976562 7.06755 1.37299 7.92287 2.26211C8.67942 3.04812 9.4054 4.0254 9.88103 4.70665C10.52 5.62125 11.1107 6.57894 11.5451 7.40335C12.2479 8.73819 12.3292 9.31089 12.3292 9.62525C12.3292 10.2597 11.9984 10.8102 11.3464 11.2611C10.9171 11.5579 10.4015 11.7813 9.90319 11.9975C9.56692 12.1433 9.03014 12.3759 8.82534 12.5395C8.89694 12.8427 9.20915 13.5752 10.0528 14.8168C10.8392 15.974 11.8561 17.2277 12.7745 18.1731C13.7179 19.0936 14.9685 20.1131 16.1234 20.901C17.3617 21.7464 18.0925 22.0595 18.3954 22.1312C18.5584 21.9261 18.7906 21.3881 18.9361 21.0513C19.1516 20.5517 19.3747 20.0348 19.6709 19.6045C20.1209 18.9509 20.67 18.6197 21.3033 18.6197C21.6169 18.6197 22.1882 18.701 23.5199 19.4054C24.3426 19.8406 25.2982 20.4329 26.2107 21.0732C26.8904 21.55 27.8655 22.2775 28.6499 23.0355C29.5367 23.8931 29.9323 24.5452 29.9323 25.1509C29.9323 26.6259 27.7756 28.362 27.1144 28.8586C26.267 29.4957 24.0735 30.9766 22.0071 30.9766ZM9.9538 21.6977C12.1055 23.7983 14.5217 25.7157 16.7588 27.0972C18.9275 28.4369 20.8404 29.2053 22.0071 29.2053C23.0464 29.2053 24.5276 28.5692 25.9702 27.5039C26.6024 27.0367 27.1781 26.5165 27.5908 26.0393C27.9779 25.5913 28.1195 25.2988 28.1556 25.1808C28.0057 24.8585 27.1169 23.8511 25.0424 22.4167C24.2285 21.8539 23.3871 21.337 22.6731 20.9607C21.7766 20.4884 21.403 20.4067 21.3177 20.3932C21.2843 20.4163 21.1869 20.498 21.0382 20.7474C20.8721 21.0266 20.7125 21.3967 20.558 21.7545C20.368 22.1952 20.1712 22.6505 19.9302 23.0183C19.538 23.616 19.0565 23.9194 18.499 23.9196C18.4889 23.9196 18.4783 23.9196 18.4676 23.9192C18.1963 23.9133 17.3703 23.8958 15.128 22.3652C13.8902 21.52 12.5458 20.4242 11.5326 19.4335L11.5167 19.4179C10.5284 18.4018 9.4352 17.0547 8.59188 15.8141C7.06461 13.5667 7.04688 12.7389 7.04121 12.4667C7.02918 11.8979 7.3287 11.4071 7.9312 11.0069C8.29976 10.7625 8.758 10.5639 9.20133 10.3716C9.55828 10.2169 9.92725 10.0569 10.2059 9.89051C10.4546 9.74185 10.5366 9.64405 10.5591 9.61045C10.5457 9.52485 10.4643 9.15045 9.99311 8.25182C9.61784 7.53644 9.10166 6.69305 8.54058 5.87742C7.10921 3.79789 6.10396 2.90707 5.78269 2.75696C5.66491 2.79326 5.3732 2.93514 4.92606 3.3233C4.44964 3.73652 3.93077 4.31365 3.46489 4.94744C2.40184 6.39298 1.7675 7.87776 1.7675 8.91935C1.7675 10.0885 2.5338 12.0057 3.87041 14.1795C5.24902 16.4218 7.16193 18.8436 9.25765 21L9.9538 21.6977ZM20.4719 15.3414C20.1635 15.3414 19.8903 15.1201 19.8348 14.8049C19.6763 13.9041 19.1559 13.1212 18.3692 12.6009C17.5714 12.0731 16.5962 11.8771 15.6231 12.0491C15.2708 12.1115 14.9349 11.8755 14.8729 11.5224C14.8108 11.1694 15.0459 10.8327 15.3983 10.7705C16.6988 10.5405 18.0073 10.8058 19.0826 11.5173C20.1693 12.2361 20.8896 13.3236 21.1106 14.5795C21.1727 14.9326 20.9375 15.2693 20.5852 15.3315C20.5472 15.3383 20.5092 15.3414 20.4719 15.3414ZM24.3712 13.665C24.0628 13.665 23.7894 13.4436 23.7341 13.1286C23.4266 11.3802 22.4185 9.86258 20.8959 8.85539C19.3621 7.8406 17.4895 7.4634 15.6231 7.79334C15.2708 7.85557 14.9352 7.61966 14.873 7.26672C14.8108 6.91372 15.046 6.57679 15.3983 6.5146C17.5922 6.12706 19.7981 6.57323 21.6094 7.77187C23.4322 8.97753 24.6399 10.8 25.0097 12.9032C25.072 13.2564 24.8366 13.5931 24.4843 13.6553C24.4463 13.6618 24.4085 13.665 24.3712 13.665ZM29.5771 13.1811C29.2687 13.1811 28.9951 12.9595 28.9398 12.6445C28.415 9.6611 26.6965 7.07188 24.1007 5.35503C21.494 3.63046 18.3132 2.98914 15.1447 3.54915C14.7926 3.61131 14.4567 3.3756 14.3947 3.02243C14.3327 2.6695 14.5678 2.33271 14.9202 2.27055C18.416 1.65256 21.9299 2.36313 24.8144 4.27123C27.7102 6.18697 29.6284 9.08062 30.2157 12.4191C30.2779 12.7721 30.0426 13.1088 29.6902 13.1709C29.6523 13.1779 29.6145 13.1811 29.5771 13.1811Z" fill="#18315B"/>
</svg>
